<?xml version="1.0" encoding="UTF-8" standalone="no"?>
<!-- Created with Inkscape (http://www.inkscape.org/) -->

<svg
   xmlns:dc="http://purl.org/dc/elements/1.1/"
   xmlns:cc="http://creativecommons.org/ns#"
   xmlns:rdf="http://www.w3.org/1999/02/22-rdf-syntax-ns#"
   xmlns:svg="http://www.w3.org/2000/svg"
   xmlns="http://www.w3.org/2000/svg"
   xmlns:sodipodi="http://sodipodi.sourceforge.net/DTD/sodipodi-0.dtd"
   xmlns:inkscape="http://www.inkscape.org/namespaces/inkscape"
   id="svg7024"
   height="37.312"
   width="37.312"
   version="1.1"
   inkscape:version="0.91 r13725"
   sodipodi:docname="poi.svg">
  <sodipodi:namedview
     pagecolor="#ffffff"
     bordercolor="#666666"
     borderopacity="1"
     objecttolerance="10"
     gridtolerance="10"
     guidetolerance="10"
     inkscape:pageopacity="0"
     inkscape:pageshadow="2"
     inkscape:window-width="1855"
     inkscape:window-height="1056"
     id="namedview17"
     showgrid="false"
     inkscape:zoom="12.650086"
     inkscape:cx="5.8262183"
     inkscape:cy="20.589663"
     inkscape:window-x="65"
     inkscape:window-y="24"
     inkscape:window-maximized="1"
     inkscape:current-layer="g4179" />
  <defs
     id="defs7026">
    <linearGradient
       id="linearGradient25259"
       y2="112.47"
       gradientUnits="userSpaceOnUse"
       x2="-312.37"
       gradientTransform="translate(331.34707,-150.96124)"
       y1="184.71"
       x1="-313.02">
      <stop
         id="stop22496-54-6"
         stop-color="#FFF"
         offset="0" />
      <stop
         id="stop22498-4-8"
         stop-color="#FFF"
         stop-opacity="0"
         offset="1" />
    </linearGradient>
  </defs>
  <metadata
     id="metadata7029">
    <rdf:RDF>
      <cc:Work
         rdf:about="">
        <dc:format>image/svg+xml</dc:format>
        <dc:type
           rdf:resource="http://purl.org/dc/dcmitype/StillImage" />
        <dc:title />
      </cc:Work>
    </rdf:RDF>
  </metadata>
  <g
     id="g4179">
    <path
       inkscape:connector-curvature="0"
       style="fill:url(#linearGradient25259);stroke-miterlimit:10"
       stroke-miterlimit="10"
       d="m 18.65697,-0.00312 c -10.31,0 -18.66,8.36 -18.66,18.66 0,10.3 8.36,18.66 18.66,18.66 10.3,0 18.66,-8.36 18.66,-18.66 0,-10.3 -8.36,-18.66 -18.66,-18.66"
       id="path24366-1" />
    <path
       id="path24741"
       d="m 28.544682,9.7772673 -0.919239,0.9192387 c -1.180868,1.180868 -7.672108,7.841814 -11.151074,11.1935 -0.961665,1.470783 -1.668772,5.105311 -1.046518,5.727565 0.622254,0.622254 4.207286,-0.162634 5.69221,-1.081873 3.139554,-3.139554 9.680292,-9.637865 11.1935,-11.151074 L 33.2328,14.465385 Z"
       inkscape:connector-curvature="0"
       style="fill:#ffffff" />
    <path
       inkscape:connector-curvature="0"
       d="m 18.8419,32.448961 c 0.226363,0.007 0.428062,-0.129685 0.503509,-0.340548 L 29.087167,4.938467 C 29.165142,4.7197207 29.090732,4.4720367 28.902382,4.3268189 28.714031,4.1816011 28.457111,4.1738081 28.268566,4.3072695 L 18.563254,11.158123 9.569221,4.0567123 C 9.3815895,3.9092445 9.121995,3.8987708 8.9319417,4.0322104 8.9069313,4.049584 8.8841978,4.0684991 8.8633735,4.0893234 8.7239363,4.2287606 8.6741376,4.4399876 8.7429002,4.6351724 L 18.339256,32.079432 c 0.07508,0.214884 0.276664,0.362931 0.502647,0.369527 z"
       id="path3" />
  </g>
</svg>
