<?xml version="1.0" encoding="UTF-8" standalone="no"?>
<svg
   xmlns:dc="http://purl.org/dc/elements/1.1/"
   xmlns:cc="http://creativecommons.org/ns#"
   xmlns:rdf="http://www.w3.org/1999/02/22-rdf-syntax-ns#"
   xmlns:svg="http://www.w3.org/2000/svg"
   xmlns="http://www.w3.org/2000/svg"
   xmlns:sodipodi="http://sodipodi.sourceforge.net/DTD/sodipodi-0.dtd"
   xmlns:inkscape="http://www.inkscape.org/namespaces/inkscape"
   id="svg2"
   version="1.1"
   inkscape:version="0.91 r13725"
   sodipodi:docname="copy2.svg"
   width="37.310001"
   height="37.310001">
  <metadata
     id="metadata10">
    <rdf:RDF>
      <cc:Work
         rdf:about="">
        <dc:format>image/svg+xml</dc:format>
        <dc:type
           rdf:resource="http://purl.org/dc/dcmitype/StillImage" />
        <dc:title></dc:title>
      </cc:Work>
    </rdf:RDF>
  </metadata>
  <defs
     id="defs8">
    <linearGradient
       id="linearGradient25035"
       y2="112.47"
       gradientUnits="userSpaceOnUse"
       x2="-312.37"
       gradientTransform="translate(331.34653,-150.95999)"
       y1="184.71001"
       x1="-313.01999">
      <stop
         id="stop22496-54-6-4"
         stop-color="#FFF"
         offset="0" />
      <stop
         id="stop22498-4-8-1"
         stop-color="#FFF"
         stop-opacity="0"
         offset="1" />
    </linearGradient>
  </defs>
  <sodipodi:namedview
     pagecolor="#ffffff"
     bordercolor="#666666"
     borderopacity="1"
     objecttolerance="10"
     gridtolerance="10"
     guidetolerance="10"
     inkscape:pageopacity="0"
     inkscape:pageshadow="2"
     inkscape:window-width="1112"
     inkscape:window-height="723"
     id="namedview6"
     showgrid="false"
     inkscape:zoom="8.453125"
     inkscape:cx="17.718794"
     inkscape:cy="20.984183"
     inkscape:window-x="203"
     inkscape:window-y="59"
     inkscape:window-maximized="0"
     inkscape:current-layer="svg2"
     fit-margin-top="0"
     fit-margin-left="0"
     fit-margin-right="0"
     fit-margin-bottom="0" />
  <g
     id="g4139">
    <path
       inkscape:connector-curvature="0"
       style="fill:url(#linearGradient25035);stroke-miterlimit:10"
       stroke-miterlimit="10"
       d="M 18.66,0 C 8.35,0 0,8.35 0,18.66 c 0,10.3 8.35,18.65 18.66,18.65 10.3,0 18.65,-8.35 18.65,-18.65 C 37.31,8.35 28.96,0 18.66,0"
       id="path24366-1-4" />
  </g>
  <g
     transform="matrix(0.09229773,0,0,0.09104088,1.3743062,1.5382545)"
     id="g3507">
    <g
       id="g3509">
      <g
         id="g3511">
        <path
           inkscape:connector-curvature="0"
           d="m 67.626,0.003 308.898,308.881 -67.638,67.638 -8.959,-8.953 46.692,-46.717 c 1.862,-1.838 1.862,-4.804 0,-6.642 -1.831,-1.825 -4.804,-1.85 -6.635,0 l -46.712,46.699 -14.531,-14.514 30.084,-30.084 c 1.838,-1.837 1.838,-4.804 0,-6.635 -1.85,-1.855 -4.798,-1.855 -6.629,0 l -30.084,30.065 -12.01,-12.009 30.084,-30.066 c 1.808,-1.832 1.808,-4.822 0,-6.653 -1.861,-1.831 -4.828,-1.831 -6.678,0 l -30.071,30.065 -11.493,-11.505 30.065,-30.06 c 1.85,-1.832 1.85,-4.805 0,-6.636 -1.831,-1.855 -4.804,-1.855 -6.635,0 l -30.084,30.066 -12.989,-13.024 46.693,-46.699 c 1.832,-1.85 1.832,-4.816 0,-6.653 -1.849,-1.825 -4.797,-1.825 -6.652,0 l -46.693,46.717 -9.002,-8.995 31.592,-31.573 c 1.831,-1.837 1.831,-4.804 -0.019,-6.653 -1.813,-1.837 -4.779,-1.837 -6.635,0 l -31.579,31.586 -12.016,-12.01 31.574,-31.598 c 1.855,-1.825 1.855,-4.798 0,-6.629 -1.832,-1.861 -4.798,-1.861 -6.636,0 l -31.585,31.566 -11.5,-11.499 31.591,-31.567 c 1.825,-1.855 1.825,-4.827 0,-6.658 -1.861,-1.832 -4.825,-1.832 -6.656,0 l -31.588,31.572 -13.15,-13.15 46.711,-46.714 c 1.837,-1.832 1.819,-4.801 -0.019,-6.636 -1.837,-1.831 -4.807,-1.831 -6.641,-0.018 l -46.711,46.721 -14.514,-14.514 30.063,-30.084 c 1.837,-1.834 1.837,-4.804 -0.018,-6.635 -1.807,-1.853 -4.783,-1.832 -6.629,0 l -30.075,30.06 -12.017,-12.006 30.078,-30.063 c 1.823,-1.831 1.823,-4.828 0,-6.641 -1.837,-1.85 -4.812,-1.85 -6.647,-0.018 l -30.06,30.087 -11.511,-11.524 30.057,-30.062 c 1.849,-1.832 1.831,-4.801 0,-6.659 -1.823,-1.832 -4.798,-1.832 -6.636,0 L 85.409,153.057 72.39,140.053 119.104,93.339 c 1.819,-1.832 1.819,-4.828 -0.006,-6.659 -1.843,-1.832 -4.812,-1.832 -6.659,0 l -46.693,46.714 -8.977,-8.998 31.567,-31.567 c 1.832,-1.831 1.832,-4.801 0,-6.635 -1.844,-1.85 -4.816,-1.85 -6.66,0 l -31.582,31.57 -11.977,-12.016 31.567,-31.57 c 1.846,-1.85 1.846,-4.819 0,-6.66 -1.832,-1.832 -4.801,-1.832 -6.647,0 L 31.475,99.088 19.952,87.588 51.535,55.997 c 1.843,-1.811 1.843,-4.786 0,-6.636 -1.841,-1.834 -4.816,-1.834 -6.647,0 L 13.294,80.954 0,67.641 67.626,0.003 Z"
           id="path3513" />
      </g>
    </g>
  </g>
</svg>
